<svg xmlns="http://www.w3.org/2000/svg" xmlns:xlink="http://www.w3.org/1999/xlink" viewBox="0 0 419.28 518.08"><defs><style>.cls-1{fill:none;}.cls-2{fill:#6bb552;}.cls-3{clip-path:url(#clip-path);}.cls-4{fill:#446eb5;}.cls-5{fill:#446eb4;}.cls-6{fill:#456eb3;}.cls-7{fill:#456fb3;}.cls-8{fill:#456fb2;}.cls-9{fill:#4570b2;}.cls-10{fill:#4670b1;}.cls-11{fill:#4671b1;}.cls-12{fill:#4671b0;}.cls-13{fill:#4772b0;}.cls-14{fill:#4772af;}.cls-15{fill:#4773af;}.cls-16{fill:#4773ae;}.cls-17{fill:#4874ae;}.cls-18{fill:#4874ad;}.cls-19{fill:#4875ad;}.cls-20{fill:#4875ac;}.cls-21{fill:#4976ac;}.cls-22{fill:#4976ab;}.cls-23{fill:#4977ab;}.cls-24{fill:#4977aa;}.cls-25{fill:#4a78aa;}.cls-26{fill:#4a78a9;}.cls-27{fill:#4a79a9;}.cls-28{fill:#4b7aa8;}.cls-29{fill:#4b7ba8;}.cls-30{fill:#4b7ba7;}.cls-31{fill:#4c7ca6;}.cls-32{fill:#4c7da6;}.cls-33{fill:#4c7da5;}.cls-34{fill:#4d7ea5;}.cls-35{fill:#4d7ea4;}.cls-36{fill:#4d7fa4;}.cls-37{fill:#4d7fa3;}.cls-38{fill:#4e80a3;}.cls-39{fill:#4e80a2;}.cls-40{fill:#4e81a2;}.cls-41{fill:#4e81a1;}.cls-42{fill:#4f82a1;}.cls-43{fill:#4f82a0;}.cls-44{fill:#4f839f;}.cls-45{fill:#50849f;}.cls-46{fill:#50849e;}.cls-47{fill:#50859e;}.cls-48{fill:#50859d;}.cls-49{fill:#51869c;}.cls-50{fill:#51869b;}.cls-51{fill:#51879b;}.cls-52{fill:#51879a;}.cls-53{fill:#52889a;}.cls-54{fill:#528899;}.cls-55{fill:#528999;}.cls-56{fill:#528998;}.cls-57{fill:#528a98;}.cls-58{fill:#538a97;}.cls-59{fill:#538b96;}.cls-60{fill:#548c95;}.cls-61{fill:#548d94;}.cls-62{fill:#548d93;}.cls-63{fill:#558d93;}.cls-64{fill:#558e93;}.cls-65{fill:#558e92;}.cls-66{fill:#558f92;}.cls-67{fill:#568f91;}.cls-68{fill:#569090;}.cls-69{fill:#56918f;}.cls-70{fill:#57918e;}.cls-71{fill:#57928e;}.cls-72{fill:#57928d;}.cls-73{fill:#57938c;}.cls-74{fill:#58938c;}.cls-75{fill:#58948b;}.cls-76{fill:#58958a;}.cls-77{fill:#599589;}.cls-78{fill:#599689;}.cls-79{fill:#599688;}.cls-80{fill:#599787;}.cls-81{fill:#5a9787;}.cls-82{fill:#5a9886;}.cls-83{fill:#5a9885;}.cls-84{fill:#5a9985;}.cls-85{fill:#5b9985;}.cls-86{fill:#5b9984;}.cls-87{fill:#5b9a84;}.cls-88{fill:#5b9a83;}.cls-89{fill:#5b9b82;}.cls-90{fill:#5c9b82;}.cls-91{fill:#5c9b81;}.cls-92{fill:#5c9c81;}.cls-93{fill:#5c9c80;}.cls-94{fill:#5d9d7f;}.cls-95{fill:#5d9e7e;}.cls-96{fill:#5d9e7d;}.cls-97{fill:#5e9f7d;}.cls-98{fill:#5e9f7c;}.cls-99{fill:#5e9f7b;}.cls-100{fill:#5ea07b;}.cls-101{fill:#5fa07a;}.cls-102{fill:#5fa179;}.cls-103{fill:#5fa178;}.cls-104{fill:#60a278;}.cls-105{fill:#60a277;}.cls-106{fill:#60a376;}.cls-107{fill:#60a375;}.cls-108{fill:#61a375;}.cls-109{fill:#61a474;}.cls-110{fill:#61a473;}.cls-111{fill:#61a573;}.cls-112{fill:#62a572;}.cls-113{fill:#62a571;}.cls-114{fill:#62a671;}.cls-115{fill:#62a670;}.cls-116{fill:#62a76f;}.cls-117{fill:#63a76e;}.cls-118{fill:#63a76d;}.cls-119{fill:#63a86d;}.cls-120{fill:#63a86c;}.cls-121{fill:#64a86b;}.cls-122{fill:#64a96b;}.cls-123{fill:#64a96a;}.cls-124{fill:#64aa69;}.cls-125{fill:#65aa68;}.cls-126{fill:#65ab67;}.cls-127{fill:#65ab66;}.cls-128{fill:#66ab65;}.cls-129{fill:#66ac64;}.cls-130{fill:#66ac63;}.cls-131{fill:#66ad63;}.cls-132{fill:#67ad62;}.cls-133{fill:#67ad61;}.cls-134{fill:#67ae61;}.cls-135{fill:#67ae60;}.cls-136{fill:#67ae5f;}.cls-137{fill:#68af5f;}.cls-138{fill:#68af5e;}.cls-139{fill:#68af5d;}.cls-140{fill:#68b05d;}.cls-141{fill:#68b05c;}.cls-142{fill:#69b05b;}.cls-143{fill:#69b15b;}.cls-144{fill:#69b15a;}.cls-145{fill:#69b159;}.cls-146{fill:#69b259;}.cls-147{fill:#6ab258;}.cls-148{fill:#6ab257;}.cls-149{fill:#6ab356;}.cls-150{fill:#6bb355;}.cls-151{fill:#6bb454;}.cls-152{fill:#6bb453;}.cls-153{fill:#6bb553;}.cls-154{fill:#6cb551;}.cls-155{fill:#6cb651;}.cls-156{fill:#6cb650;}.cls-157{fill:#6cb64f;}.cls-158{fill:#6cb74f;}.cls-159{fill:#6db74e;}.cls-160{fill:#6db74d;}.cls-161{fill:#6db84d;}.cls-162{fill:#6db84c;}.cls-163{fill:#6db84b;}.cls-164{fill:#6db94b;}.cls-165{fill:#6eb94a;}.cls-166{fill:#6eb949;}.cls-167{fill:#6eba49;}.cls-168{fill:#6eba48;}.cls-169{fill:#6ebb48;}.cls-170{fill:#6ebb47;}.cls-171{fill:#6ebc47;}.cls-172{fill:#6fbc46;}.cls-173{fill:#6fbd46;}.cls-174{fill:#6fbd45;}.cls-175{fill:#6fbe45;}.cls-176{fill:#6fbe44;}</style><clipPath id="clip-path" transform="translate(47.61 56.98)"><path class="cls-1" d="M292,278.38c-1.09-63.66-59.64-114.58-131-114.58h-2.47c-28.57,0-54.58-21-55-46.5-.42-25.7,22.87-47,51.79-47.39s51.74,14,52.17,39.63l79.8.09C286.18,46,227.35,0,155.94,0H154C81.74,1,23.77,54.1,24.83,118.33c1,63.67,62.39,115.22,133.79,115.22h1.95v0h.32c28.55,0,52,20.45,52.43,45.92s-22.49,46.35-50.83,47.33v0c-14.82.31-28.08-4.39-38.13-13.06s-15.74-19.48-16-31.94L29.79,282c.53,31.12,14.66,60.2,39.79,81.88,24.65,21.25,57,32.9,91.24,32.9.68,0,1.06,0,2.55-.12l.3,0C235.57,395.27,293.05,342.39,292,278.38Z"/></clipPath></defs><g id="Layer_2" data-name="Layer 2"><g id="Arrow_26" data-name="Arrow 26"><polygon class="cls-2" points="294.46 286.36 259.92 226.52 225.37 166.68 294.46 166.68 363.56 166.68 329.01 226.52 294.46 286.36"/></g><g id="Layer_1-2" data-name="Layer 1"><g class="cls-3"><ellipse class="cls-4" cx="116.57" cy="316.02" rx="116.57" ry="129.95"/><ellipse class="cls-5" cx="117.46" cy="317.95" rx="116.54" ry="129.67"/><ellipse class="cls-5" cx="118.37" cy="319.94" rx="116.5" ry="129.4"/><ellipse class="cls-6" cx="119.31" cy="321.97" rx="116.47" ry="129.12"/><ellipse class="cls-7" cx="120.28" cy="324.05" rx="116.43" ry="128.84"/><ellipse class="cls-8" cx="121.28" cy="326.18" rx="116.4" ry="128.57"/><ellipse class="cls-8" cx="122.32" cy="328.34" rx="116.36" ry="128.29"/><ellipse class="cls-9" cx="123.39" cy="330.54" rx="116.33" ry="128.01"/><ellipse class="cls-10" cx="124.49" cy="332.77" rx="116.29" ry="127.74"/><ellipse class="cls-10" cx="125.64" cy="335.02" rx="116.26" ry="127.46"/><ellipse class="cls-11" cx="126.82" cy="337.3" rx="116.22" ry="127.19"/><ellipse class="cls-12" cx="128.05" cy="339.6" rx="116.19" ry="126.91"/><ellipse class="cls-12" cx="129.33" cy="341.91" rx="116.15" ry="126.63"/><ellipse class="cls-12" cx="130.65" cy="344.23" rx="116.12" ry="126.36"/><ellipse class="cls-13" cx="132.02" cy="346.56" rx="116.08" ry="126.08"/><ellipse class="cls-14" cx="133.44" cy="348.89" rx="116.05" ry="125.81"/><ellipse class="cls-14" cx="134.91" cy="351.22" rx="116.01" ry="125.53"/><ellipse class="cls-15" cx="136.44" cy="353.55" rx="115.98" ry="125.25"/><ellipse class="cls-15" cx="138.02" cy="355.86" rx="115.94" ry="124.98"/><ellipse class="cls-16" cx="139.66" cy="358.16" rx="115.91" ry="124.7"/><ellipse class="cls-17" cx="141.37" cy="360.45" rx="115.88" ry="124.43"/><ellipse class="cls-17" cx="143.13" cy="362.71" rx="115.84" ry="124.15"/><ellipse class="cls-18" cx="144.96" cy="364.95" rx="115.81" ry="123.87"/><ellipse class="cls-18" cx="146.86" cy="367.16" rx="115.77" ry="123.6"/><ellipse class="cls-19" cx="148.82" cy="369.34" rx="115.74" ry="123.32"/><ellipse class="cls-19" cx="150.85" cy="371.48" rx="115.7" ry="123.04"/><ellipse class="cls-20" cx="152.96" cy="373.58" rx="115.67" ry="122.77"/><ellipse class="cls-21" cx="155.14" cy="375.63" rx="115.63" ry="122.49"/><ellipse class="cls-21" cx="157.39" cy="377.64" rx="115.6" ry="122.22"/><ellipse class="cls-22" cx="159.73" cy="379.59" rx="115.56" ry="121.94"/><ellipse class="cls-23" cx="162.14" cy="381.48" rx="115.53" ry="121.66"/><ellipse class="cls-23" cx="164.64" cy="383.32" rx="115.49" ry="121.39"/><ellipse class="cls-23" cx="167.21" cy="385.09" rx="115.46" ry="121.11"/><ellipse class="cls-24" cx="169.88" cy="386.79" rx="115.42" ry="120.84"/><ellipse class="cls-25" cx="172.63" cy="388.41" rx="115.39" ry="120.56"/><ellipse class="cls-25" cx="175.47" cy="389.96" rx="115.35" ry="120.28"/><ellipse class="cls-26" cx="178.4" cy="391.43" rx="115.32" ry="120.01"/><ellipse class="cls-27" cx="181.43" cy="392.82" rx="115.28" ry="119.73"/><ellipse class="cls-27" cx="184.55" cy="394.11" rx="115.25" ry="119.45"/><ellipse class="cls-27" cx="187.77" cy="395.31" rx="115.21" ry="119.18"/><ellipse class="cls-28" cx="191.09" cy="396.42" rx="115.18" ry="118.9"/><ellipse class="cls-28" cx="194.51" cy="397.42" rx="115.14" ry="118.63"/><ellipse class="cls-28" cx="198.03" cy="398.32" rx="115.11" ry="118.35"/><ellipse class="cls-29" cx="201.65" cy="399.12" rx="115.07" ry="118.07"/><ellipse class="cls-30" cx="205.39" cy="399.79" rx="115.04" ry="117.8"/><ellipse class="cls-30" cx="209.23" cy="400.36" rx="115" ry="117.52"/><ellipse class="cls-30" cx="213.18" cy="400.8" rx="114.97" ry="117.25"/><ellipse class="cls-31" cx="217.25" cy="401.11" rx="114.94" ry="116.97"/><ellipse class="cls-31" cx="221.43" cy="401.3" rx="114.9" ry="116.69"/><ellipse class="cls-31" cx="225.73" cy="401.36" rx="114.87" ry="116.42"/><ellipse class="cls-32" cx="229.32" cy="400.54" rx="114.83" ry="116.14"/><ellipse class="cls-33" cx="231.33" cy="398.25" rx="114.8" ry="115.87"/><ellipse class="cls-33" cx="233.34" cy="395.96" rx="114.76" ry="115.59"/><ellipse class="cls-34" cx="235.35" cy="393.67" rx="114.73" ry="115.31"/><ellipse class="cls-35" cx="237.37" cy="391.38" rx="114.69" ry="115.04"/><ellipse class="cls-35" cx="239.38" cy="389.09" rx="114.66" ry="114.76"/><ellipse class="cls-35" cx="241.39" cy="386.8" rx="114.62" ry="114.48"/><ellipse class="cls-36" cx="243.4" cy="384.5" rx="114.59" ry="114.21"/><ellipse class="cls-37" cx="245.41" cy="382.21" rx="114.55" ry="113.93"/><ellipse class="cls-37" cx="247.43" cy="379.92" rx="114.52" ry="113.66"/><ellipse class="cls-38" cx="249.44" cy="377.63" rx="114.48" ry="113.38"/><ellipse class="cls-39" cx="251.45" cy="375.34" rx="114.45" ry="113.1"/><ellipse class="cls-39" cx="253.46" cy="373.05" rx="114.41" ry="112.83"/><ellipse class="cls-40" cx="255.47" cy="370.76" rx="114.38" ry="112.55"/><ellipse class="cls-41" cx="257.49" cy="368.47" rx="114.34" ry="112.28"/><ellipse class="cls-41" cx="259.5" cy="366.18" rx="114.31" ry="112"/><ellipse class="cls-42" cx="261.51" cy="363.89" rx="114.27" ry="111.72"/><ellipse class="cls-43" cx="263.52" cy="361.59" rx="114.24" ry="111.45"/><ellipse class="cls-43" cx="265.53" cy="359.3" rx="114.2" ry="111.17"/><ellipse class="cls-43" cx="267.55" cy="357.01" rx="114.17" ry="110.89"/><ellipse class="cls-44" cx="269.56" cy="354.72" rx="114.13" ry="110.62"/><ellipse class="cls-44" cx="271.57" cy="352.43" rx="114.1" ry="110.34"/><ellipse class="cls-44" cx="273.58" cy="350.14" rx="114.06" ry="110.07"/><ellipse class="cls-45" cx="275.6" cy="347.85" rx="114.03" ry="109.79"/><ellipse class="cls-46" cx="277.61" cy="345.56" rx="114" ry="109.51"/><ellipse class="cls-46" cx="279.62" cy="343.27" rx="113.96" ry="109.24"/><ellipse class="cls-47" cx="281.63" cy="340.98" rx="113.93" ry="108.96"/><ellipse class="cls-48" cx="283.64" cy="338.68" rx="113.89" ry="108.69"/><ellipse class="cls-48" cx="285.66" cy="336.39" rx="113.86" ry="108.41"/><ellipse class="cls-49" cx="287.67" cy="334.1" rx="113.82" ry="108.13"/><ellipse class="cls-49" cx="289.68" cy="331.81" rx="113.79" ry="107.86"/><ellipse class="cls-49" cx="291.69" cy="329.52" rx="113.75" ry="107.58"/><ellipse class="cls-50" cx="293.7" cy="327.23" rx="113.72" ry="107.31"/><ellipse class="cls-51" cx="295.72" cy="324.94" rx="113.68" ry="107.03"/><ellipse class="cls-51" cx="297.73" cy="322.65" rx="113.65" ry="106.75"/><ellipse class="cls-52" cx="299.74" cy="320.36" rx="113.61" ry="106.48"/><ellipse class="cls-53" cx="301.75" cy="318.06" rx="113.58" ry="106.2"/><ellipse class="cls-53" cx="303.77" cy="315.77" rx="113.54" ry="105.92"/><ellipse class="cls-54" cx="305.78" cy="313.48" rx="113.51" ry="105.65"/><ellipse class="cls-55" cx="305.17" cy="311.36" rx="113.47" ry="105.37"/><ellipse class="cls-55" cx="302.88" cy="309.35" rx="113.44" ry="105.1"/><ellipse class="cls-56" cx="300.59" cy="307.33" rx="113.4" ry="104.82"/><ellipse class="cls-57" cx="298.3" cy="305.32" rx="113.37" ry="104.54"/><ellipse class="cls-58" cx="296.01" cy="303.31" rx="113.33" ry="104.27"/><ellipse class="cls-58" cx="293.72" cy="301.29" rx="113.3" ry="103.99"/><ellipse class="cls-58" cx="291.43" cy="299.28" rx="113.26" ry="103.72"/><ellipse class="cls-59" cx="289.14" cy="297.27" rx="113.23" ry="103.44"/><ellipse class="cls-59" cx="286.85" cy="295.25" rx="113.19" ry="103.16"/><ellipse class="cls-59" cx="284.56" cy="293.24" rx="113.16" ry="102.89"/><ellipse class="cls-60" cx="282.27" cy="291.22" rx="113.12" ry="102.61"/><ellipse class="cls-60" cx="279.98" cy="289.21" rx="113.09" ry="102.34"/><ellipse class="cls-60" cx="277.69" cy="287.2" rx="113.06" ry="102.06"/><ellipse class="cls-61" cx="275.4" cy="285.18" rx="113.02" ry="101.78"/><ellipse class="cls-61" cx="273.11" cy="283.17" rx="112.99" ry="101.51"/><ellipse class="cls-62" cx="270.82" cy="281.16" rx="112.95" ry="101.23"/><ellipse class="cls-63" cx="268.53" cy="279.14" rx="112.92" ry="100.95"/><ellipse class="cls-64" cx="266.24" cy="277.13" rx="112.88" ry="100.68"/><ellipse class="cls-65" cx="263.95" cy="275.12" rx="112.85" ry="100.4"/><ellipse class="cls-65" cx="261.66" cy="273.1" rx="112.81" ry="100.13"/><ellipse class="cls-66" cx="259.37" cy="271.09" rx="112.78" ry="99.85"/><ellipse class="cls-67" cx="257.08" cy="269.08" rx="112.74" ry="99.57"/><ellipse class="cls-67" cx="254.79" cy="267.06" rx="112.71" ry="99.3"/><ellipse class="cls-68" cx="252.5" cy="265.05" rx="112.67" ry="99.02"/><ellipse class="cls-68" cx="250.21" cy="263.03" rx="112.64" ry="98.75"/><ellipse class="cls-68" cx="247.92" cy="261.02" rx="112.6" ry="98.47"/><ellipse class="cls-69" cx="245.64" cy="259.01" rx="112.57" ry="98.19"/><ellipse class="cls-69" cx="243.35" cy="256.99" rx="112.53" ry="97.92"/><ellipse class="cls-70" cx="241.06" cy="254.98" rx="112.5" ry="97.64"/><ellipse class="cls-70" cx="238.77" cy="252.97" rx="112.46" ry="97.36"/><ellipse class="cls-71" cx="236.48" cy="250.95" rx="112.43" ry="97.09"/><ellipse class="cls-72" cx="234.19" cy="248.94" rx="112.39" ry="96.81"/><ellipse class="cls-72" cx="231.9" cy="246.93" rx="112.36" ry="96.54"/><ellipse class="cls-73" cx="229.61" cy="244.91" rx="112.32" ry="96.26"/><ellipse class="cls-74" cx="227.32" cy="242.9" rx="112.29" ry="95.98"/><ellipse class="cls-74" cx="225.03" cy="240.89" rx="112.25" ry="95.71"/><ellipse class="cls-75" cx="222.74" cy="238.87" rx="112.22" ry="95.43"/><ellipse class="cls-75" cx="220.45" cy="236.86" rx="112.18" ry="95.16"/><ellipse class="cls-75" cx="218.16" cy="234.84" rx="112.15" ry="94.88"/><ellipse class="cls-76" cx="215.87" cy="232.83" rx="112.12" ry="94.6"/><ellipse class="cls-76" cx="213.53" cy="230.87" rx="112.08" ry="94.33"/><ellipse class="cls-77" cx="211.16" cy="228.96" rx="112.05" ry="94.05"/><ellipse class="cls-78" cx="208.78" cy="227.05" rx="112.01" ry="93.78"/><ellipse class="cls-78" cx="206.4" cy="225.14" rx="111.98" ry="93.5"/><ellipse class="cls-79" cx="204.03" cy="223.23" rx="111.94" ry="93.22"/><ellipse class="cls-79" cx="201.65" cy="221.32" rx="111.91" ry="92.95"/><ellipse class="cls-80" cx="199.27" cy="219.41" rx="111.87" ry="92.67"/><ellipse class="cls-81" cx="196.9" cy="217.5" rx="111.84" ry="92.39"/><ellipse class="cls-81" cx="194.52" cy="215.59" rx="111.8" ry="92.12"/><ellipse class="cls-82" cx="192.14" cy="213.68" rx="111.77" ry="91.84"/><ellipse class="cls-82" cx="189.77" cy="211.77" rx="111.73" ry="91.57"/><ellipse class="cls-83" cx="187.39" cy="209.86" rx="111.7" ry="91.29"/><ellipse class="cls-84" cx="185.01" cy="207.95" rx="111.66" ry="91.01"/><ellipse class="cls-85" cx="182.64" cy="206.04" rx="111.63" ry="90.74"/><ellipse class="cls-86" cx="180.26" cy="204.13" rx="111.59" ry="90.46"/><ellipse class="cls-87" cx="177.88" cy="202.22" rx="111.56" ry="90.19"/><ellipse class="cls-88" cx="175.51" cy="200.31" rx="111.52" ry="89.91"/><ellipse class="cls-88" cx="173.13" cy="198.4" rx="111.49" ry="89.63"/><ellipse class="cls-89" cx="170.75" cy="196.49" rx="111.45" ry="89.36"/><ellipse class="cls-90" cx="168.38" cy="194.58" rx="111.42" ry="89.08"/><ellipse class="cls-90" cx="166" cy="192.67" rx="111.38" ry="88.8"/><ellipse class="cls-91" cx="163.62" cy="190.76" rx="111.35" ry="88.53"/><ellipse class="cls-92" cx="161.24" cy="188.85" rx="111.31" ry="88.25"/><ellipse class="cls-93" cx="158.87" cy="186.94" rx="111.28" ry="87.98"/><ellipse class="cls-93" cx="156.49" cy="185.03" rx="111.24" ry="87.7"/><ellipse class="cls-94" cx="154.11" cy="183.12" rx="111.21" ry="87.42"/><ellipse class="cls-94" cx="151.74" cy="181.21" rx="111.18" ry="87.15"/><ellipse class="cls-94" cx="149.36" cy="179.3" rx="111.14" ry="86.87"/><ellipse class="cls-95" cx="146.98" cy="177.39" rx="111.11" ry="86.6"/><ellipse class="cls-95" cx="144.61" cy="175.48" rx="111.07" ry="86.32"/><ellipse class="cls-96" cx="142.23" cy="173.57" rx="111.04" ry="86.04"/><ellipse class="cls-97" cx="139.85" cy="171.66" rx="111" ry="85.77"/><ellipse class="cls-98" cx="137.48" cy="169.75" rx="110.97" ry="85.49"/><ellipse class="cls-98" cx="135.1" cy="167.84" rx="110.93" ry="85.22"/><ellipse class="cls-99" cx="132.72" cy="165.93" rx="110.9" ry="84.94"/><ellipse class="cls-100" cx="130.35" cy="164.02" rx="110.86" ry="84.66"/><ellipse class="cls-101" cx="127.97" cy="162.11" rx="110.83" ry="84.39"/><ellipse class="cls-101" cx="125.59" cy="160.2" rx="110.79" ry="84.11"/><ellipse class="cls-102" cx="123.22" cy="158.29" rx="110.76" ry="83.83"/><ellipse class="cls-102" cx="120.84" cy="156.38" rx="110.72" ry="83.56"/><ellipse class="cls-103" cx="118.46" cy="154.47" rx="110.69" ry="83.28"/><ellipse class="cls-104" cx="116.09" cy="152.56" rx="110.65" ry="83.01"/><ellipse class="cls-105" cx="113.71" cy="150.65" rx="110.62" ry="82.73"/><ellipse class="cls-105" cx="111.33" cy="148.74" rx="110.58" ry="82.45"/><ellipse class="cls-106" cx="112.55" cy="146.78" rx="110.55" ry="82.18"/><ellipse class="cls-106" cx="114.88" cy="144.8" rx="110.51" ry="81.9"/><ellipse class="cls-107" cx="117.2" cy="142.83" rx="110.48" ry="81.63"/><ellipse class="cls-108" cx="119.52" cy="140.85" rx="110.44" ry="81.35"/><ellipse class="cls-109" cx="121.84" cy="138.87" rx="110.41" ry="81.07"/><ellipse class="cls-109" cx="124.16" cy="136.9" rx="110.37" ry="80.8"/><ellipse class="cls-110" cx="126.49" cy="134.92" rx="110.34" ry="80.52"/><ellipse class="cls-111" cx="128.81" cy="132.95" rx="110.3" ry="80.24"/><ellipse class="cls-112" cx="131.13" cy="130.97" rx="110.27" ry="79.97"/><ellipse class="cls-113" cx="133.45" cy="128.99" rx="110.24" ry="79.69"/><ellipse class="cls-114" cx="135.77" cy="127.02" rx="110.2" ry="79.42"/><ellipse class="cls-115" cx="138.1" cy="125.04" rx="110.17" ry="79.14"/><ellipse class="cls-115" cx="140.42" cy="123.07" rx="110.13" ry="78.86"/><ellipse class="cls-116" cx="142.74" cy="121.09" rx="110.1" ry="78.59"/><ellipse class="cls-117" cx="145.06" cy="119.11" rx="110.06" ry="78.31"/><ellipse class="cls-117" cx="147.38" cy="117.14" rx="110.03" ry="78.04"/><ellipse class="cls-118" cx="149.71" cy="115.16" rx="109.99" ry="77.76"/><ellipse class="cls-119" cx="152.03" cy="113.18" rx="109.96" ry="77.48"/><ellipse class="cls-120" cx="154.35" cy="111.21" rx="109.92" ry="77.21"/><ellipse class="cls-121" cx="156.67" cy="109.23" rx="109.89" ry="76.93"/><ellipse class="cls-122" cx="159" cy="107.26" rx="109.85" ry="76.66"/><ellipse class="cls-123" cx="161.32" cy="105.28" rx="109.82" ry="76.38"/><ellipse class="cls-123" cx="163.64" cy="103.3" rx="109.78" ry="76.1"/><ellipse class="cls-124" cx="165.96" cy="101.33" rx="109.75" ry="75.83"/><ellipse class="cls-125" cx="168.28" cy="99.35" rx="109.71" ry="75.55"/><ellipse class="cls-125" cx="170.61" cy="97.38" rx="109.68" ry="75.27"/><ellipse class="cls-126" cx="172.93" cy="95.4" rx="109.64" ry="75"/><ellipse class="cls-127" cx="175.25" cy="93.42" rx="109.61" ry="74.72"/><ellipse class="cls-127" cx="177.57" cy="91.45" rx="109.57" ry="74.45"/><ellipse class="cls-128" cx="179.89" cy="89.47" rx="109.54" ry="74.17"/><ellipse class="cls-129" cx="182.22" cy="87.49" rx="109.5" ry="73.89"/><ellipse class="cls-129" cx="184.54" cy="85.52" rx="109.47" ry="73.62"/><ellipse class="cls-130" cx="186.86" cy="83.54" rx="109.43" ry="73.34"/><ellipse class="cls-131" cx="189.18" cy="81.57" rx="109.4" ry="73.07"/><ellipse class="cls-132" cx="191.5" cy="79.59" rx="109.36" ry="72.79"/><ellipse class="cls-133" cx="193.83" cy="77.61" rx="109.33" ry="72.51"/><ellipse class="cls-134" cx="196.15" cy="75.64" rx="109.3" ry="72.24"/><ellipse class="cls-135" cx="198.47" cy="73.66" rx="109.26" ry="71.96"/><ellipse class="cls-136" cx="200.79" cy="71.69" rx="109.23" ry="71.69"/><ellipse class="cls-137" cx="203.17" cy="72.25" rx="109.19" ry="71.41"/><ellipse class="cls-138" cx="205.57" cy="74.12" rx="109.16" ry="71.13"/><ellipse class="cls-139" cx="207.98" cy="76" rx="109.12" ry="70.86"/><ellipse class="cls-140" cx="210.38" cy="77.87" rx="109.09" ry="70.58"/><ellipse class="cls-141" cx="212.79" cy="79.75" rx="109.05" ry="70.3"/><ellipse class="cls-142" cx="215.19" cy="81.62" rx="109.02" ry="70.03"/><ellipse class="cls-143" cx="217.6" cy="83.5" rx="108.98" ry="69.75"/><ellipse class="cls-144" cx="220" cy="85.37" rx="108.95" ry="69.48"/><ellipse class="cls-145" cx="222.41" cy="87.25" rx="108.91" ry="69.2"/><ellipse class="cls-146" cx="224.81" cy="89.12" rx="108.88" ry="68.92"/><ellipse class="cls-147" cx="227.21" cy="91" rx="108.84" ry="68.65"/><ellipse class="cls-148" cx="229.62" cy="92.87" rx="108.81" ry="68.37"/><ellipse class="cls-148" cx="232.02" cy="94.75" rx="108.77" ry="68.1"/><ellipse class="cls-149" cx="234.43" cy="96.62" rx="108.74" ry="67.82"/><ellipse class="cls-149" cx="236.83" cy="98.5" rx="108.7" ry="67.54"/><ellipse class="cls-150" cx="239.24" cy="100.37" rx="108.67" ry="67.27"/><ellipse class="cls-151" cx="241.64" cy="102.25" rx="108.63" ry="66.99"/><ellipse class="cls-151" cx="244.05" cy="104.12" rx="108.6" ry="66.71"/><ellipse class="cls-152" cx="246.45" cy="106" rx="108.56" ry="66.44"/><ellipse class="cls-153" cx="248.85" cy="107.87" rx="108.53" ry="66.16"/><ellipse class="cls-2" cx="251.26" cy="109.75" rx="108.49" ry="65.89"/><ellipse class="cls-154" cx="253.66" cy="111.62" rx="108.46" ry="65.61"/><ellipse class="cls-155" cx="256.07" cy="113.5" rx="108.42" ry="65.33"/><ellipse class="cls-156" cx="258.47" cy="115.37" rx="108.39" ry="65.06"/><ellipse class="cls-157" cx="260.88" cy="117.25" rx="108.36" ry="64.78"/><ellipse class="cls-158" cx="263.28" cy="119.12" rx="108.32" ry="64.51"/><ellipse class="cls-159" cx="265.69" cy="121" rx="108.29" ry="64.23"/><ellipse class="cls-160" cx="268.09" cy="122.87" rx="108.25" ry="63.95"/><ellipse class="cls-161" cx="270.5" cy="124.75" rx="108.22" ry="63.68"/><ellipse class="cls-162" cx="272.9" cy="126.62" rx="108.18" ry="63.4"/><ellipse class="cls-163" cx="275.3" cy="128.5" rx="108.15" ry="63.13"/><ellipse class="cls-164" cx="277.71" cy="130.37" rx="108.11" ry="62.85"/><ellipse class="cls-165" cx="280.11" cy="132.25" rx="108.08" ry="62.57"/><ellipse class="cls-166" cx="282.52" cy="134.12" rx="108.04" ry="62.3"/><ellipse class="cls-167" cx="284.92" cy="136" rx="108.01" ry="62.02"/><ellipse class="cls-168" cx="287.33" cy="137.87" rx="107.97" ry="61.74"/><ellipse class="cls-169" cx="289.73" cy="139.75" rx="107.94" ry="61.47"/><ellipse class="cls-170" cx="292.14" cy="141.62" rx="107.9" ry="61.19"/><ellipse class="cls-171" cx="294.54" cy="143.5" rx="107.87" ry="60.92"/><ellipse class="cls-172" cx="296.95" cy="145.37" rx="107.83" ry="60.64"/><ellipse class="cls-173" cx="299.35" cy="147.25" rx="107.8" ry="60.36"/><ellipse class="cls-174" cx="301.75" cy="149.12" rx="107.76" ry="60.09"/><ellipse class="cls-175" cx="304.16" cy="151" rx="107.73" ry="59.81"/><ellipse class="cls-176" cx="306.56" cy="152.87" rx="107.69" ry="59.54"/></g></g><g id="Layer_4" data-name="Layer 4"><polygon class="cls-39" points="116.71 221.75 151.26 281.59 185.81 341.43 116.71 341.43 47.61 341.43 82.16 281.59 116.71 221.75"/></g></g></svg>